<svg id="Layer_1" xmlns="http://www.w3.org/2000/svg" xmlns:xlink="http://www.w3.org/1999/xlink"
        viewBox="-1 5 101 63">
        <path class="cls-1"
              fill="#aaaaaa"
              d="M62.8,50.9a13.3,13.3,0,0,1-26.6,0,13,13,0,0,1,5.2-10.5L49.6,47l-2,1.6a3.34,3.34,0,0,0-1.2,2.5,3.2,3.2,0,1,0,6.4,0,2.9,2.9,0,0,0-1.1-2.4c-.1-.1-.2-.1-.2-.2l-2-1.5,8.1-6.6.1-.1A13.57,13.57,0,0,1,62.8,50.9Z"
              transform="translate(-0.01)"/>
        <path class="cls-2"
              fill="#aaaaaa"
              d="M68.9,0A13.61,13.61,0,0,0,55.3,13.6a13.34,13.34,0,0,0,3,8.5L60.2,25l8-6.4-1.8-2.8-.4-.7a2.77,2.77,0,0,1-.3-1.3,3.12,3.12,0,0,1,3.1-3.1,3.05,3.05,0,0,1,3.1,3.1,4,4,0,0,1-1.4,2.8l-2.3,2,5.5,8.6,2.4-1.9a13.75,13.75,0,0,0,6.4-11.6A13.51,13.51,0,0,0,68.9,0Z"
              transform="translate(-0.01)"/>
        <path class="cls-3"
              fill="#aaaaaa"
              d="M65.8,33.7l-8.1,6.6-.1.1-.9-.7h0l-7.2-5.9L60.2,25Z" transform="translate(-0.01)"/>
        <path class="cls-4"
              fill="#aaaaaa"
              d="M30,0A13.61,13.61,0,0,1,43.6,13.6a13.34,13.34,0,0,1-3,8.5L38.7,25l-8-6.4,1.8-2.8.4-.7a2.77,2.77,0,0,0,.3-1.3,3.12,3.12,0,0,0-3.1-3.1A3.05,3.05,0,0,0,27,13.8a4,4,0,0,0,1.4,2.8l2.3,2-5.5,8.6-2.4-1.9A13.7,13.7,0,0,1,30,0Z"
              transform="translate(-0.01)"/>
        <polygon class="cls-5"
                 fill="#aaaaaa"
                 points="57.69 40.4 49.48 47 41.38 40.4 41.28 40.3 33.09 33.7 38.69 25 49.48 33.8 57.69 40.4"/>
        <path class="cls-6"
              fill="#aaaaaa"
              d="M72.7,13.6v.2a5.06,5.06,0,0,1-1.6,3.4h0l-3,2.6-6.8,5.4L50.2,34.3l6.9,5.6,8.3-6.8,8-6.5,2.5-2h0a13,13,0,0,0,6-11H72.7Z"
              transform="translate(-0.01)"/>
        <path class="cls-7"
              fill="#aaaaaa"
              d="M26.3,13.6v.2a5.06,5.06,0,0,0,1.6,3.4h0l3,2.6,6.8,5.4,11.1,9.1L42,39.9l-8.3-6.8-8-6.5-2.5-2h0a13,13,0,0,1-6-11h9.1Z"
              transform="translate(-0.01)"/>
        <path class="cls-8"
              fill="#aaaaaa"
              d="M48.7,63.4A12.58,12.58,0,0,1,36.9,50.9a12.41,12.41,0,0,1,4.4-9.5l.6-.5,7,5.6-2,1.5a4.2,4.2,0,0,0-1.5,3.1A4.06,4.06,0,0,0,48.6,55v8.4Z"
              transform="translate(-0.01)"/>
        <path class="cls-9"
              fill="#aaaaaa"
              d="M97.6,69.5l-3.7,2.4a2.84,2.84,0,0,1-4-.9L65.8,33.7,60.2,25l8-6.4,5.1,8,.4.6L98.4,65.5A2.9,2.9,0,0,1,97.6,69.5Z"
              transform="translate(-0.01)"/>
        <path class="cls-10"
              fill="#aaaaaa"
              d="M1.3,69.5,5,71.9A2.84,2.84,0,0,0,9,71L33.1,33.7,38.7,25l-8-6.4-5.1,8-.4.6L.5,65.5A2.9,2.9,0,0,0,1.3,69.5Z"
              transform="translate(-0.01)"/>
    </svg>