<svg xmlns="http://www.w3.org/2000/svg" xmlns:xlink="http://www.w3.org/1999/xlink" viewBox="0 0 576 576"><title>icn-json</title><g id="Layer_2" data-name="Layer 2"><g id="Layer_1-2" data-name="Layer 1"><path fill="#aaaaaa" d="M128,19.2C128,1.5,113.66,0,96,0S64,1.5,64,19.2V288h64V19.2ZM64,556.8C64,574.43,78.3,576,96,576s32-1.57,32-19.2V448H64ZM172.77,320H19.17C1.47,320,0,334.34,0,352v32c0,17.7,1.47,32,19.17,32H172.8c17.6,0,19.2-14.3,19.2-32V352C192,334.34,190.4,320,172.77,320Zm384,32H403.14C385.47,352,384,366.34,384,384v32c0,17.7,1.47,32,19.17,32H556.8c17.6,0,19.2-14.3,19.2-32V384C576,366.34,574.4,352,556.77,352ZM384,192c0-17.66-1.6-32-19.23-32H211.17c-17.7,0-19.17,14.34-19.17,32v32c0,17.7,1.47,32,19.17,32H364.8c17.6,0,19.2-14.3,19.2-32ZM320,19.2C320,1.5,305.66,0,288,0s-32,1.5-32,19.2V128h64ZM256,556.8c0,17.63,14.3,19.2,32,19.2s32-1.57,32-19.2V288H256ZM512,19.2C512,1.5,497.66,0,480,0s-32,1.5-32,19.2V320h64V19.2ZM448,556.8c0,17.63,14.3,19.2,32,19.2s32-1.57,32-19.2V480H448Z"/></g></g></svg>